<?xml version="1.0" encoding="UTF-8" standalone="no"?>
<!DOCTYPE svg PUBLIC "-//W3C//DTD SVG 1.1//EN" "http://www.w3.org/Graphics/SVG/1.1/DTD/svg11.dtd">
<svg width="100%" height="100%" viewBox="0 0 1632 690" version="1.1" xmlns="http://www.w3.org/2000/svg" xmlns:xlink="http://www.w3.org/1999/xlink" xml:space="preserve" xmlns:serif="http://www.serif.com/" style="fill-rule:evenodd;clip-rule:evenodd;stroke-linejoin:round;stroke-miterlimit:2;">
    <g transform="matrix(0.1,0,0,-0.1,-107,1312)">
        <path d="M4555,11790C4166,11727 3803,11565 3488,11313C3258,11130 3041,10880 2913,10650C2896,10620 2872,10578 2861,10558C2849,10537 2832,10505 2822,10488C2794,10437 2720,10253 2694,10170C2682,10129 2659,10034 2645,9960C2631,9886 2613,9796 2605,9760C2597,9724 2588,9650 2584,9595C2581,9540 2577,9484 2576,9470C2570,9422 2590,9157 2604,9101C2612,9070 2621,9025 2624,9000C2641,8888 2706,8655 2750,8550C2906,8179 3135,7869 3440,7616C3601,7482 3711,7411 3895,7321C4060,7240 4167,7198 4290,7166C4348,7150 4415,7132 4440,7125C4624,7072 5063,7057 5275,7097C5336,7109 5435,7132 5495,7149C5556,7166 5623,7185 5645,7191C5666,7196 5689,7205 5695,7209C5700,7214 5730,7227 5760,7238C6020,7336 6325,7534 6539,7743C6770,7970 6958,8248 7075,8537C7095,8585 7115,8634 7119,8645C7142,8698 7182,8848 7204,8965C7241,9155 7253,9309 7246,9500C7226,9988 7088,10412 6822,10805C6792,10849 6753,10901 6736,10921C6719,10941 6678,10988 6646,11026C6563,11122 6441,11239 6340,11318C6293,11354 6253,11387 6250,11391C6247,11394 6207,11421 6160,11451C5876,11633 5634,11728 5315,11785C5189,11808 5151,11810 4920,11809C4727,11808 4638,11804 4555,11790ZM5186,11566C5357,11543 5434,11524 5600,11463C5709,11422 5929,11314 6010,11261C6199,11138 6394,10961 6535,10785C6710,10568 6868,10254 6934,9992C6972,9842 7010,9603 7010,9515C7010,9507 6975,9501 6888,9496C6820,9493 6740,9483 6710,9476C6628,9455 6518,9422 6495,9411C6484,9406 6445,9388 6408,9371C6371,9354 6339,9340 6336,9340C6324,9340 6129,9213 6070,9167C5988,9103 5948,9066 5782,8905C5631,8758 5645,8772 5564,8702C5531,8674 5501,8650 5497,8650C5493,8650 5467,8633 5439,8611C5352,8545 5236,8493 5075,8449C4997,8427 4762,8430 4675,8454C4637,8464 4598,8476 4590,8481C4582,8485 4552,8497 4524,8508C4458,8534 4338,8613 4304,8653C4240,8729 4219,8850 4249,8970C4295,9153 4648,9309 5020,9310C5458,9312 5844,9489 6038,9778C6109,9884 6141,9955 6170,10080C6214,10269 6185,10476 6085,10672C5974,10891 5668,11106 5355,11185C5204,11223 5098,11233 4904,11228C4719,11222 4592,11201 4435,11148C4319,11109 4164,11039 4103,10998C4080,10983 4059,10970 4055,10970C4052,10970 4009,10938 3961,10900C3653,10657 3539,10370 3640,10093C3682,9981 3768,9852 3861,9766C4008,9630 4351,9430 4438,9430C4477,9430 4456,9417 4347,9375L4250,9336L4152,9354C3979,9384 3798,9455 3658,9546C3561,9610 3403,9764 3339,9858C3207,10052 3155,10215 3155,10430C3155,10594 3167,10622 3331,10825C3527,11068 3808,11277 4130,11418C4202,11449 4419,11520 4495,11536C4691,11579 4991,11591 5186,11566ZM5186,10990C5476,10931 5730,10792 5840,10631C5902,10541 5947,10428 5959,10332C5976,10200 5962,10112 5903,9990C5864,9909 5844,9882 5770,9810C5591,9634 5356,9550 5043,9550C4820,9550 4627,9587 4475,9660C4311,9739 4245,9851 4285,9986C4312,10080 4348,10141 4419,10210C4590,10379 4874,10485 5078,10457C5212,10439 5340,10365 5369,10287C5408,10185 5350,10031 5244,9950C5204,9919 5133,9874 5065,9837L4995,9799L5100,9803C5257,9810 5378,9857 5480,9952C5567,10034 5602,10116 5601,10238C5600,10372 5567,10444 5464,10531C5352,10626 5227,10668 5030,10677C4917,10682 4894,10680 4796,10656C4737,10642 4674,10623 4656,10616C4639,10608 4614,10598 4600,10594C4586,10591 4573,10585 4570,10581C4567,10578 4530,10557 4488,10535C4251,10414 4079,10169 4058,9926C4055,9897 4054,9897 3985,9967C3946,10006 3903,10059 3888,10086C3825,10203 3814,10348 3861,10450C3895,10522 4004,10656 4072,10708C4101,10731 4130,10753 4135,10758C4156,10774 4242,10822 4327,10864C4432,10916 4613,10974 4730,10993C4862,11015 5069,11014 5186,10990ZM2990,10064C3023,9965 3087,9830 3128,9773C3140,9756 3150,9739 3150,9735C3150,9726 3214,9647 3275,9580C3353,9494 3502,9375 3605,9315C3708,9255 3861,9187 3936,9169C3963,9162 3989,9152 3995,9148C4000,9143 3979,9114 3944,9077C3841,8972 3783,8888 3704,8731C3605,8535 3575,8395 3583,8160C3588,8018 3593,7979 3619,7881C3636,7819 3650,7765 3650,7763C3650,7761 3629,7774 3603,7792C3542,7835 3404,7973 3314,8080C3248,8159 3140,8310 3140,8323C3140,8326 3128,8346 3114,8367C3050,8461 2950,8695 2900,8867C2786,9263 2795,9681 2927,10083C2941,10125 2954,10160 2956,10160C2957,10160 2973,10117 2990,10064ZM6997,9264C7003,9248 6987,9108 6970,9030C6930,8852 6893,8721 6859,8635C6837,8580 6815,8531 6811,8527C6807,8523 6790,8526 6774,8534C6647,8599 6519,8616 6400,8585C6275,8553 6110,8454 5925,8300C5613,8041 5415,7944 5080,7885C4842,7843 4525,7885 4208,7999C4176,8011 4144,8020 4136,8020C4116,8020 4253,7886 4316,7845C4417,7778 4516,7731 4612,7706C4714,7679 4891,7659 4975,7666C5003,7668 5053,7672 5088,7674C5215,7684 5358,7719 5504,7776C5664,7839 5772,7902 5928,8022C6101,8156 6127,8177 6155,8203C6172,8219 6203,8244 6225,8258C6247,8273 6267,8288 6270,8291C6284,8309 6402,8359 6454,8370C6544,8388 6643,8370 6678,8327C6687,8316 6680,8300 6646,8248C6372,7831 5905,7496 5425,7374C5243,7327 5157,7317 4945,7316C4666,7315 4504,7343 4274,7431C4087,7504 4013,7569 3918,7750C3836,7905 3795,8060 3796,8210C3797,8342 3839,8504 3912,8660C3937,8714 3992,8800 4001,8800C4004,8800 4010,8777 4013,8748C4026,8644 4122,8498 4235,8413C4318,8350 4458,8280 4555,8252C4834,8172 5164,8203 5410,8333C5578,8421 5670,8493 5900,8714C6017,8826 6148,8944 6225,9007C6286,9056 6456,9152 6554,9192C6728,9264 6981,9305 6997,9264Z" style="fill:rgb(0,51,102);fill-rule:nonzero;"/>
        <path d="M12506,10260C12443,10236 12416,10209 12385,10144C12343,10056 12355,9972 12422,9890C12466,9834 12518,9815 12620,9815C12688,9815 12713,9820 12746,9837C12837,9885 12882,10010 12848,10121C12833,10173 12775,10238 12726,10261C12671,10286 12571,10285 12506,10260Z" style="fill:rgb(0,51,102);fill-rule:nonzero;"/>
        <path d="M7720,10176C7720,10113 7721,10111 7750,10105C7793,10095 7826,10065 7845,10017C7859,9980 7860,9894 7858,9210C7855,8489 7854,8443 7837,8411C7812,8366 7770,8331 7742,8330C7720,8330 7719,8327 7722,8273L7725,8215L8492,8212C9342,8210 9290,8206 9290,8275C9290,8307 9307,8412 9349,8649C9361,8712 9367,8766 9364,8769C9361,8772 9329,8777 9293,8780L9228,8786L9201,8737C9144,8630 9038,8480 8997,8446C8926,8388 8866,8378 8617,8382C8382,8385 8359,8391 8327,8454C8299,8509 8298,8528 8298,8848C8298,9098 8301,9165 8312,9171C8319,9176 8407,9180 8508,9180C8703,9180 8724,9176 8766,9128C8785,9106 8825,9029 8849,8967C8860,8940 8863,8939 8918,8942L8975,8945L8973,8990C8968,9110 8969,9551 8974,9559C8978,9564 8953,9570 8920,9572L8860,9575L8839,9523C8812,9456 8756,9392 8706,9369C8672,9354 8639,9350 8510,9350C8341,9350 8315,9354 8305,9378C8302,9387 8299,9522 8300,9678C8301,9987 8304,10008 8356,10049C8385,10072 8388,10072 8615,10068C8834,10064 8847,10062 8890,10040C8915,10027 8937,10012 8938,10008C8940,10004 8946,10000 8951,10000C8975,10000 9026,9936 9084,9834L9146,9725L9218,9722C9299,9719 9297,9716 9280,9797C9242,9985 9229,10049 9226,10075C9213,10182 9206,10216 9197,10228C9190,10237 9029,10240 8454,10240L7720,10240L7720,10176Z" style="fill:rgb(0,51,102);fill-rule:nonzero;"/>
        <path d="M9800,9623C9748,9598 9692,9574 9675,9569C9659,9565 9602,9546 9550,9528L9456,9494L9459,9445C9463,9383 9462,9384 9504,9376C9530,9371 9545,9360 9562,9332L9585,9295L9585,8880C9585,8442 9582,8412 9538,8363C9527,8351 9505,8336 9489,8329C9461,8318 9459,8314 9462,8266L9465,8215L9798,8213C9981,8212 10137,8213 10145,8216C10155,8220 10160,8237 10160,8269L10160,8315L10101,8343C10053,8366 10039,8379 10019,8418C9995,8465 9995,8466 9995,8800C9995,9191 10001,9233 10063,9314C10112,9377 10128,9390 10156,9390C10201,9390 10229,9368 10247,9321C10271,9257 10306,9205 10336,9191C10371,9175 10476,9177 10509,9194C10579,9231 10628,9344 10611,9433C10596,9512 10576,9552 10526,9598C10415,9700 10219,9691 10092,9576C10070,9556 10034,9512 10013,9480C9992,9447 9972,9420 9969,9420C9965,9420 9962,9471 9961,9533C9960,9626 9957,9647 9943,9658C9918,9676 9904,9673 9800,9623Z" style="fill:rgb(0,51,102);fill-rule:nonzero;"/>
        <path d="M11325,9664C11314,9662 11278,9654 11245,9648C11157,9631 11009,9568 10937,9517C10759,9388 10660,9195 10644,8944C10639,8861 10641,8830 10660,8751C10727,8470 10912,8277 11194,8196C11298,8165 11455,8161 11567,8184C11723,8217 11886,8312 11977,8422C12020,8475 12078,8574 12093,8620C12135,8752 12143,8800 12143,8916C12143,9090 12110,9215 12034,9333C11962,9444 11826,9568 11757,9586C11742,9589 11730,9596 11730,9600C11730,9609 11726,9610 11608,9643C11526,9666 11383,9676 11325,9664ZM11467,9495C11526,9470 11569,9432 11611,9367C11683,9256 11710,9123 11711,8881C11711,8656 11677,8518 11598,8426C11468,8275 11245,8326 11154,8528C11140,8558 11118,8625 11103,8678C11079,8766 11076,8791 11077,8955C11077,9125 11078,9140 11104,9220C11120,9267 11145,9330 11160,9360C11220,9478 11361,9539 11467,9495Z" style="fill:rgb(0,51,102);fill-rule:nonzero;"/>
        <path d="M12677,9630C12562,9574 12417,9523 12318,9503C12292,9498 12290,9495 12290,9445C12290,9393 12290,9393 12340,9362C12369,9344 12395,9319 12401,9304C12407,9286 12410,9130 12408,8865L12405,8454L12380,8405C12362,8371 12342,8348 12317,8335C12282,8316 12280,8313 12280,8263L12280,8210L12960,8210L12960,8265C12960,8306 12956,8320 12946,8320C12925,8320 12872,8367 12852,8404C12834,8437 12834,8443 12827,9313C12825,9675 12825,9670 12775,9669C12764,9669 12720,9651 12677,9630Z" style="fill:rgb(0,51,102);fill-rule:nonzero;"/>
        <path d="M13700,9660C13632,9648 13501,9602 13443,9569C13175,9416 13024,9075 13084,8759C13126,8541 13227,8384 13395,8277C13510,8204 13602,8177 13750,8172C13896,8167 13964,8181 14079,8238C14185,8291 14312,8417 14363,8522C14383,8564 14400,8607 14400,8617C14400,8641 14363,8676 14329,8685C14306,8691 14296,8684 14249,8630C14150,8518 14043,8469 13896,8470C13819,8470 13800,8474 13745,8500C13572,8583 13479,8766 13477,9030C13475,9271 13553,9440 13687,9490C13754,9515 13796,9515 13852,9491C13909,9467 13953,9415 13975,9348C14024,9198 14065,9130 14120,9108C14134,9103 14173,9098 14208,9098C14261,9098 14277,9103 14306,9125C14325,9139 14350,9170 14361,9193C14379,9227 14381,9244 14376,9298C14368,9371 14353,9405 14301,9470C14251,9532 14236,9544 14149,9589C14017,9656 13842,9684 13700,9660Z" style="fill:rgb(0,51,102);fill-rule:nonzero;"/>
        <path d="M15035,9664C14742,9622 14562,9490 14557,9312C14555,9242 14575,9210 14642,9175C14698,9146 14761,9143 14819,9166C14870,9186 14887,9213 14916,9322C14930,9374 14951,9426 14967,9446C15062,9571 15228,9523 15284,9355C15301,9303 15336,9052 15327,9043C15324,9041 15309,9045 15293,9053C15278,9061 15231,9073 15190,9080C15126,9090 15101,9090 15025,9075C14910,9054 14831,9027 14753,8984C14545,8869 14456,8623 14549,8424C14627,8258 14780,8170 14991,8170C15136,8170 15247,8213 15354,8309C15381,8334 15383,8334 15394,8316C15433,8252 15450,8233 15491,8207C15605,8137 15785,8161 15896,8262C15946,8307 15953,8331 15933,8381C15916,8425 15918,8424 15837,8404C15770,8388 15755,8449 15745,8770C15734,9157 15696,9324 15587,9458C15531,9527 15416,9607 15340,9629C15315,9636 15285,9646 15274,9650C15248,9660 15077,9670 15035,9664ZM15227,8915C15323,8887 15357,8810 15345,8645C15331,8446 15271,8370 15127,8370C15049,8370 15010,8392 14964,8463C14860,8622 14923,8859 15083,8913C15140,8932 15168,8932 15227,8915Z" style="fill:rgb(0,51,102);fill-rule:nonzero;"/>
    </g>
</svg>
